<?xml version="1.0" encoding="UTF-8" standalone="no"?>
<!DOCTYPE svg PUBLIC "-//W3C//DTD SVG 1.1//EN" "http://www.w3.org/Graphics/SVG/1.1/DTD/svg11.dtd">
<!-- Created with Vectornator (http://vectornator.io/) -->
<svg height="100%" stroke-miterlimit="10" style="fill-rule:nonzero;clip-rule:evenodd;stroke-linecap:round;stroke-linejoin:round;" version="1.1" viewBox="0 0 628.76 510.96" width="100%" xml:space="preserve" xmlns="http://www.w3.org/2000/svg" xmlns:xlink="http://www.w3.org/1999/xlink">
<defs>
<clipPath id="TextBounds">
<rect height="110.481" width="628.758" x="-0.338241" y="400.863"/>
</clipPath>
</defs>
<g id="Layer-1">
<g opacity="1">
<g opacity="1">
<path d="M114.041 15.3829L514.041 15.3829L514.041 415.383L114.041 415.383L114.041 15.3829Z" fill="#2a3850" fill-rule="nonzero" opacity="1" stroke="none"/>
<g opacity="1">
<g opacity="1">
<path d="M228.138 116.355L265.138 116.355L265.138 316.355L228.138 316.355L228.138 116.355Z" fill="#ffffff" fill-rule="nonzero" opacity="1" stroke="none"/>
<path d="M228.146 115.941L379.109 115.941L379.109 160.909L228.146 160.909L228.146 115.941Z" fill="#ffffff" fill-rule="nonzero" opacity="1" stroke="none"/>
<path d="M228.557 272.45L379.519 272.45L379.519 317.418L228.557 317.418L228.557 272.45Z" fill="#ffffff" fill-rule="nonzero" opacity="1" stroke="none"/>
<path d="M239.237 198.098L345.014 198.098L345.014 231.975L239.237 231.975L239.237 198.098Z" fill="#ffffff" fill-rule="nonzero" opacity="1" stroke="none"/>
</g>
<path d="M378.631 116.022L399.112 113.152L399.112 158.176L378.631 161.046L378.631 116.022Z" fill="#8fa5ca" fill-rule="nonzero" opacity="1" stroke="none"/>
<path d="M379.464 272.59L399.944 269.72L399.944 314.744L379.464 317.614L379.464 272.59Z" fill="#8fa5ca" fill-rule="nonzero" opacity="1" stroke="none"/>
<path d="M344.943 198.059L365.423 195.887L365.423 229.945L344.943 232.116L344.943 198.059Z" fill="#8fa5ca" fill-rule="nonzero" opacity="1" stroke="none"/>
</g>
</g>
<g fill="#2a3850" opacity="1" stroke="none">
<path clip-path="url(#TextBounds)" d="M41.9372 435.157L17.8569 435.157L17.8569 452.009L37.0269 452.009L37.0269 459.944L17.8569 459.944L17.8569 480.764L42.9586 480.764L42.9586 488.739L7.05417 488.739L7.05417 427.183L41.9372 427.183L41.9372 435.157Z"/>
<path clip-path="url(#TextBounds)" d="M47.8768 488.739L64.1006 467.055L49.8017 446.313L60.958 446.313L69.2073 461.28L78.1638 446.313L89.3201 446.313L73.9213 467.487L89.4772 488.739L78.3209 488.739L68.8931 473.261L59.0331 488.739L47.8768 488.739Z"/>
<path clip-path="url(#TextBounds)" d="M97.3416 452.088C99.5677 450.071 102.213 448.494 105.277 447.354C108.341 446.215 111.562 445.646 114.94 445.646C117.219 445.646 119.405 445.907 121.501 446.431C123.596 446.955 125.455 447.754 127.079 448.827C128.702 449.901 129.999 451.283 130.968 452.972C131.937 454.661 132.421 456.658 132.421 458.962L132.421 477.897C132.421 478.813 132.474 479.579 132.578 480.195C132.683 480.81 132.86 481.295 133.109 481.648C133.357 482.002 133.678 482.251 134.071 482.395C134.464 482.539 134.948 482.611 135.524 482.611C135.734 482.611 136.127 482.571 136.703 482.493C137.279 482.414 137.829 482.323 138.353 482.218L139.453 486.735C138.824 487.128 138.183 487.495 137.528 487.835C136.873 488.176 136.173 488.47 135.426 488.719C134.68 488.968 133.868 489.171 132.991 489.328C132.113 489.485 131.151 489.564 130.103 489.564C128.139 489.564 126.496 489.112 125.173 488.208C123.851 487.305 123.006 486.015 122.64 484.339C121.54 485.36 120.401 486.212 119.222 486.892C118.044 487.573 116.859 488.11 115.667 488.503C114.475 488.896 113.284 489.171 112.092 489.328C110.901 489.485 109.742 489.564 108.616 489.564C106.704 489.564 104.989 489.315 103.47 488.817C101.951 488.32 100.654 487.58 99.5808 486.598C98.507 485.616 97.6821 484.398 97.1059 482.945C96.5298 481.491 96.2417 479.795 96.2417 477.857C96.2417 475.684 96.5756 473.779 97.2434 472.142C97.9112 470.505 98.8344 469.097 100.013 467.919C101.191 466.74 102.592 465.765 104.216 464.992C105.84 464.22 107.614 463.611 109.539 463.166C111.464 462.72 113.5 462.406 115.647 462.223C117.795 462.04 119.982 461.948 122.208 461.948L122.208 460.416C122.208 459.028 122.011 457.836 121.618 456.841C121.226 455.846 120.682 455.034 119.988 454.406C119.294 453.777 118.463 453.312 117.494 453.011C116.525 452.71 115.451 452.559 114.273 452.559C113.277 452.559 112.335 452.644 111.444 452.815C110.554 452.985 109.657 453.286 108.753 453.718C107.85 454.15 106.914 454.726 105.945 455.447C104.976 456.167 103.902 457.09 102.723 458.216L97.3416 452.088ZM122.208 466.583C119.17 466.714 116.675 467.042 114.724 467.565C112.773 468.089 111.228 468.777 110.089 469.628C108.95 470.479 108.157 471.474 107.712 472.613C107.267 473.752 107.044 475.003 107.044 476.365C107.044 477.517 107.175 478.473 107.437 479.232C107.699 479.992 108.072 480.607 108.557 481.079C109.041 481.55 109.624 481.884 110.305 482.08C110.986 482.277 111.732 482.375 112.544 482.375C113.277 482.375 114.03 482.336 114.803 482.257C115.575 482.178 116.368 482.028 117.179 481.805C117.991 481.583 118.816 481.275 119.654 480.882C120.492 480.489 121.343 479.992 122.208 479.389L122.208 466.583Z"/>
<path clip-path="url(#TextBounds)" d="M156.627 446.313C156.784 446.732 156.955 447.328 157.138 448.101C157.321 448.873 157.465 449.574 157.57 450.202C158.225 449.626 159.03 449.07 159.986 448.533C160.942 447.996 161.976 447.511 163.089 447.079C164.202 446.647 165.381 446.3 166.625 446.038C167.869 445.776 169.106 445.646 170.337 445.646C172.668 445.646 174.75 446.058 176.583 446.883C178.416 447.708 179.83 448.775 180.825 450.085C182.03 449.273 183.195 448.585 184.321 448.022C185.448 447.459 186.574 447.001 187.7 446.647C188.826 446.294 189.978 446.038 191.157 445.881C192.335 445.724 193.592 445.646 194.928 445.646C197.206 445.646 199.157 445.979 200.781 446.647C202.405 447.315 203.734 448.232 204.768 449.397C205.803 450.562 206.562 451.937 207.047 453.522C207.531 455.106 207.773 456.802 207.773 458.609L207.773 488.739L197.56 488.739L197.56 461.437C197.56 459.84 197.396 458.524 197.069 457.489C196.741 456.455 196.27 455.63 195.655 455.014C195.039 454.399 194.286 453.967 193.396 453.718C192.505 453.469 191.497 453.345 190.371 453.345C189.114 453.345 187.89 453.476 186.698 453.738C185.507 454 184.217 454.445 182.829 455.073C183.038 455.676 183.195 456.363 183.3 457.136C183.405 457.908 183.457 458.805 183.457 459.827L183.457 488.739L173.244 488.739L173.244 461.437C173.244 459.814 173.093 458.478 172.792 457.43C172.491 456.383 172.039 455.558 171.437 454.956C170.834 454.353 170.088 453.934 169.198 453.699C168.307 453.463 167.26 453.345 166.055 453.345C164.484 453.345 163.102 453.535 161.911 453.915C160.719 454.294 159.534 454.825 158.356 455.506L158.356 488.739L148.142 488.739L148.142 451.263C148.142 450.373 148.129 449.482 148.103 448.592C148.077 447.701 147.998 446.942 147.867 446.313L156.627 446.313Z"/>
<path clip-path="url(#TextBounds)" d="M230.683 446.313C230.84 446.706 231.01 447.263 231.194 447.983C231.377 448.703 231.508 449.404 231.587 450.085C232.215 449.535 232.883 448.991 233.59 448.454C234.297 447.917 235.083 447.446 235.947 447.04C236.811 446.634 237.774 446.3 238.834 446.038C239.895 445.776 241.093 445.646 242.429 445.646C245.833 445.646 248.688 446.235 250.992 447.413C253.297 448.592 255.137 450.163 256.511 452.127C257.886 454.091 258.868 456.357 259.458 458.923C260.047 461.49 260.341 464.161 260.341 466.937C260.341 469.948 259.942 472.836 259.143 475.599C258.345 478.362 257.14 480.797 255.529 482.905C253.919 485.013 251.889 486.696 249.441 487.953C246.992 489.21 244.118 489.839 240.818 489.839C237.492 489.839 234.546 488.83 231.979 486.814L231.979 506.534L221.766 506.534L221.766 454.366C221.766 454.209 221.759 453.816 221.746 453.188C221.733 452.559 221.707 451.846 221.668 451.047C221.628 450.248 221.563 449.417 221.471 448.552C221.38 447.688 221.242 446.942 221.059 446.313L230.683 446.313ZM239.993 453.345C238.605 453.345 237.276 453.509 236.006 453.836C234.736 454.163 233.394 454.707 231.979 455.466L231.979 479.743C232.686 480.319 233.387 480.764 234.081 481.079C234.775 481.393 235.482 481.629 236.202 481.786C236.922 481.943 237.656 482.034 238.402 482.061C239.148 482.087 239.914 482.1 240.7 482.1C242.271 482.1 243.614 481.661 244.727 480.784C245.84 479.907 246.75 478.748 247.457 477.307C248.164 475.867 248.688 474.23 249.028 472.397C249.368 470.564 249.539 468.691 249.539 466.78C249.539 464.842 249.355 463.048 248.989 461.398C248.622 459.748 248.059 458.327 247.3 457.136C246.54 455.944 245.552 455.014 244.334 454.347C243.116 453.679 241.669 453.345 239.993 453.345Z"/>
<path clip-path="url(#TextBounds)" d="M271.781 427.183L281.994 427.183L281.994 478.486C281.994 479.822 282.21 480.764 282.642 481.314C283.074 481.864 283.67 482.139 284.43 482.139C285.294 482.139 286.027 482.021 286.629 481.786C287.232 481.55 287.926 481.275 288.711 480.961L290.44 486.225C289.785 486.67 289.072 487.089 288.299 487.482C287.526 487.874 286.715 488.221 285.863 488.523C285.012 488.824 284.135 489.066 283.232 489.249C282.328 489.433 281.431 489.524 280.541 489.524C279.415 489.524 278.328 489.407 277.28 489.171C276.233 488.935 275.303 488.483 274.491 487.816C273.679 487.148 273.025 486.225 272.527 485.046C272.029 483.868 271.781 482.349 271.781 480.489L271.781 427.183Z"/>
<path clip-path="url(#TextBounds)" d="M335.191 481.707C333.567 483.436 332.002 484.824 330.497 485.871C328.991 486.919 327.491 487.724 325.999 488.287C324.506 488.85 322.987 489.223 321.442 489.407C319.897 489.59 318.286 489.682 316.61 489.682C312.996 489.682 309.899 489.053 307.32 487.796C304.74 486.539 302.632 484.863 300.995 482.768C299.358 480.673 298.154 478.263 297.381 475.54C296.609 472.816 296.222 469.988 296.222 467.055C296.222 464.226 296.622 461.522 297.42 458.943C298.219 456.363 299.437 454.091 301.074 452.127C302.711 450.163 304.766 448.592 307.241 447.413C309.716 446.235 312.629 445.646 315.982 445.646C318.967 445.646 321.586 446.051 323.838 446.863C326.09 447.675 327.969 448.841 329.475 450.359C330.981 451.878 332.114 453.718 332.873 455.879C333.633 458.039 334.012 460.455 334.012 463.126C334.012 464.148 333.98 465.202 333.914 466.289C333.849 467.375 333.711 468.508 333.502 469.687L306.986 469.687C306.986 470.917 307.208 472.266 307.654 473.733C308.099 475.199 308.747 476.581 309.598 477.877C310.449 479.173 311.503 480.254 312.76 481.118C314.017 481.982 315.458 482.414 317.081 482.414C318.496 482.414 319.733 482.309 320.794 482.1C321.854 481.89 322.836 481.55 323.74 481.079C324.643 480.607 325.508 479.985 326.333 479.213C327.158 478.44 328.041 477.478 328.984 476.325L335.191 481.707ZM315.392 453.306C313.742 453.306 312.381 453.594 311.307 454.17C310.233 454.746 309.382 455.506 308.754 456.448C308.125 457.391 307.68 458.465 307.418 459.669C307.156 460.874 307.025 462.118 307.025 463.401L323.249 463.401C323.249 462.301 323.17 461.156 323.013 459.964C322.856 458.773 322.502 457.686 321.953 456.704C321.403 455.722 320.61 454.91 319.576 454.268C318.541 453.626 317.147 453.306 315.392 453.306Z"/>
<path clip-path="url(#TextBounds)" d="M409.333 427.183C412.423 427.183 415.219 427.53 417.72 428.224C420.221 428.918 422.342 429.919 424.084 431.229C425.825 432.538 427.167 434.149 428.11 436.061C429.053 437.972 429.524 440.159 429.524 442.621C429.524 444.166 429.217 445.672 428.601 447.138C427.986 448.605 427.154 449.947 426.107 451.165C425.059 452.383 423.828 453.443 422.414 454.347C421 455.25 419.494 455.911 417.897 456.33C419.494 456.619 421.138 457.142 422.827 457.902C424.516 458.661 426.061 459.696 427.462 461.005C428.863 462.315 430.015 463.905 430.919 465.778C431.822 467.65 432.274 469.831 432.274 472.319C432.274 474.414 431.816 476.45 430.899 478.427C429.983 480.404 428.621 482.159 426.814 483.691C425.007 485.223 422.768 486.447 420.097 487.364C417.425 488.28 414.348 488.739 410.865 488.739L389.652 488.739L389.692 427.183L409.333 427.183ZM400.455 461.319L400.455 480.804L408.744 480.804C410.891 480.804 412.757 480.529 414.342 479.979C415.926 479.429 417.235 478.702 418.27 477.798C419.304 476.895 420.07 475.887 420.568 474.774C421.066 473.661 421.314 472.528 421.314 471.376C421.314 470.014 421.066 468.718 420.568 467.487C420.07 466.256 419.298 465.189 418.25 464.285C417.203 463.382 415.861 462.662 414.224 462.125C412.587 461.588 410.616 461.319 408.312 461.319L400.455 461.319ZM400.494 435.118L400.455 453.384L406.19 453.384C408.128 453.384 409.89 453.201 411.474 452.834C413.058 452.468 414.407 451.898 415.52 451.125C416.633 450.353 417.491 449.384 418.093 448.219C418.695 447.053 418.997 445.672 418.997 444.074C418.997 442.555 418.774 441.233 418.329 440.107C417.884 438.981 417.131 438.051 416.07 437.318C415.009 436.584 413.615 436.034 411.886 435.668C410.158 435.301 408.011 435.118 405.444 435.118L400.494 435.118Z"/>
<path clip-path="url(#TextBounds)" d="M452.238 446.313C452.788 449.089 453.18 451.918 453.416 454.798C453.914 453.646 454.634 452.52 455.577 451.42C456.52 450.32 457.567 449.345 458.719 448.494C459.872 447.642 461.083 446.955 462.353 446.431C463.623 445.907 464.834 445.646 465.987 445.646C467.427 445.646 468.501 445.737 469.208 445.921C469.915 446.104 470.478 446.287 470.897 446.47L468.697 455.702C467.859 455.309 467.08 455.041 466.36 454.897C465.64 454.753 464.926 454.681 464.219 454.681C461.783 454.681 459.695 455.257 457.953 456.409C456.212 457.561 454.791 459.08 453.691 460.966L453.77 488.739L443.478 488.739L443.478 453.463C443.478 453.018 443.471 452.455 443.458 451.774C443.445 451.093 443.432 450.399 443.419 449.692C443.406 448.985 443.379 448.323 443.34 447.708C443.301 447.092 443.255 446.628 443.203 446.313L452.238 446.313Z"/>
<path clip-path="url(#TextBounds)" d="M477.662 452.088C479.888 450.071 482.533 448.494 485.597 447.354C488.661 446.215 491.882 445.646 495.26 445.646C497.539 445.646 499.725 445.907 501.82 446.431C503.915 446.955 505.775 447.754 507.399 448.827C509.022 449.901 510.319 451.283 511.288 452.972C512.257 454.661 512.741 456.658 512.741 458.962L512.741 477.897C512.741 478.813 512.793 479.579 512.898 480.195C513.003 480.81 513.18 481.295 513.428 481.648C513.677 482.002 513.998 482.251 514.391 482.395C514.784 482.539 515.268 482.611 515.844 482.611C516.054 482.611 516.447 482.571 517.023 482.493C517.599 482.414 518.149 482.323 518.673 482.218L519.773 486.735C519.144 487.128 518.502 487.495 517.848 487.835C517.193 488.176 516.493 488.47 515.746 488.719C515 488.968 514.188 489.171 513.311 489.328C512.433 489.485 511.471 489.564 510.423 489.564C508.459 489.564 506.816 489.112 505.493 488.208C504.171 487.305 503.326 486.015 502.96 484.339C501.86 485.36 500.72 486.212 499.542 486.892C498.364 487.573 497.178 488.11 495.987 488.503C494.795 488.896 493.604 489.171 492.412 489.328C491.221 489.485 490.062 489.564 488.936 489.564C487.024 489.564 485.309 489.315 483.79 488.817C482.271 488.32 480.974 487.58 479.901 486.598C478.827 485.616 478.002 484.398 477.426 482.945C476.85 481.491 476.562 479.795 476.562 477.857C476.562 475.684 476.896 473.779 477.563 472.142C478.231 470.505 479.154 469.097 480.333 467.919C481.511 466.74 482.912 465.765 484.536 464.992C486.16 464.22 487.934 463.611 489.859 463.166C491.784 462.72 493.82 462.406 495.967 462.223C498.115 462.04 500.301 461.948 502.527 461.948L502.527 460.416C502.527 459.028 502.331 457.836 501.938 456.841C501.545 455.846 501.002 455.034 500.308 454.406C499.614 453.777 498.783 453.312 497.814 453.011C496.845 452.71 495.771 452.559 494.592 452.559C493.597 452.559 492.654 452.644 491.764 452.815C490.874 452.985 489.977 453.286 489.073 453.718C488.17 454.15 487.233 454.726 486.264 455.447C485.295 456.167 484.222 457.09 483.043 458.216L477.662 452.088ZM502.527 466.583C499.49 466.714 496.995 467.042 495.044 467.565C493.093 468.089 491.548 468.777 490.409 469.628C489.27 470.479 488.477 471.474 488.032 472.613C487.587 473.752 487.364 475.003 487.364 476.365C487.364 477.517 487.495 478.473 487.757 479.232C488.019 479.992 488.392 480.607 488.877 481.079C489.361 481.55 489.944 481.884 490.625 482.08C491.306 482.277 492.052 482.375 492.864 482.375C493.597 482.375 494.35 482.336 495.123 482.257C495.895 482.178 496.687 482.028 497.499 481.805C498.311 481.583 499.136 481.275 499.974 480.882C500.812 480.489 501.663 479.992 502.527 479.389L502.527 466.583Z"/>
<path clip-path="url(#TextBounds)" d="M528.619 453.581C528.619 452.743 528.599 451.662 528.56 450.34C528.521 449.017 528.37 447.675 528.108 446.313L537.733 446.313C537.811 446.497 537.89 446.752 537.968 447.079C538.047 447.407 538.132 447.76 538.224 448.14C538.315 448.52 538.394 448.913 538.459 449.318C538.525 449.724 538.584 450.098 538.636 450.438C539.265 449.862 540.024 449.286 540.915 448.71C541.805 448.133 542.781 447.616 543.841 447.158C544.902 446.7 546.048 446.333 547.278 446.058C548.509 445.783 549.792 445.646 551.128 445.646C553.328 445.646 555.377 445.986 557.276 446.667C559.175 447.348 560.824 448.33 562.225 449.613C563.627 450.896 564.733 452.468 565.545 454.327C566.357 456.186 566.763 458.295 566.763 460.652L566.763 488.739L556.549 488.739L556.549 462.576C556.549 460.874 556.379 459.434 556.038 458.255C555.698 457.077 555.194 456.127 554.526 455.407C553.858 454.687 553.04 454.163 552.071 453.836C551.102 453.509 549.989 453.345 548.732 453.345C547.999 453.345 547.213 453.404 546.375 453.522C545.537 453.64 544.679 453.816 543.802 454.052C542.925 454.288 542.06 454.563 541.209 454.877C540.358 455.191 539.566 455.545 538.833 455.938L538.833 488.739L528.619 488.739L528.619 453.581Z"/>
<path clip-path="url(#TextBounds)" d="M599.218 445.646C601.261 445.646 602.989 445.868 604.403 446.313C605.818 446.759 606.996 447.322 607.939 448.003L607.939 427.183L618.152 427.183L618.152 474.126C618.152 475.225 618.205 476.391 618.309 477.622C618.414 478.853 618.584 480.103 618.82 481.373C619.056 482.643 619.357 483.907 619.724 485.164C620.09 486.421 620.535 487.613 621.059 488.739L611.514 488.739C611.252 488.529 610.983 488.254 610.708 487.914C610.433 487.573 610.165 487.207 609.903 486.814C609.641 486.421 609.405 486.009 609.196 485.576C608.986 485.144 608.816 484.732 608.685 484.339C607.271 485.989 605.641 487.266 603.794 488.169C601.948 489.073 599.847 489.524 597.49 489.524C594.53 489.524 591.879 488.961 589.535 487.835C587.191 486.709 585.207 485.164 583.584 483.2C581.96 481.236 580.722 478.905 579.871 476.208C579.02 473.51 578.595 470.59 578.595 467.447C578.595 464.619 579.066 461.896 580.009 459.277C580.952 456.658 582.313 454.34 584.094 452.324C585.875 450.307 588.036 448.69 590.576 447.472C593.116 446.254 595.997 445.646 599.218 445.646ZM599.297 481.786C600.894 481.786 602.361 481.622 603.696 481.295C605.032 480.967 606.446 480.385 607.939 479.547L607.939 454.956C606.839 454.458 605.674 454.065 604.443 453.777C603.212 453.489 601.889 453.345 600.475 453.345C598.694 453.345 597.116 453.712 595.742 454.445C594.367 455.178 593.208 456.167 592.265 457.411C591.322 458.655 590.602 460.108 590.104 461.771C589.607 463.434 589.358 465.195 589.358 467.055C589.358 468.94 589.561 470.767 589.967 472.535C590.373 474.302 590.988 475.874 591.813 477.249C592.638 478.623 593.673 479.723 594.917 480.548C596.161 481.373 597.621 481.786 599.297 481.786Z"/>
</g>
</g>
</g>
</svg>
